<?xml version="1.0" encoding="UTF-8" standalone="no"?>
<!-- Created with Inkscape (http://www.inkscape.org/) -->

<svg
   width="15.16881mm"
   height="5.79984mm"
   viewBox="0 0 21.669698 8.2854741"
   version="1.1"
   id="svg1"
   sodipodi:docname="Namelabel.svg"
   inkscape:version="1.3.2 (091e20e, 2023-11-25)"
   inkscape:export-filename="Namelabel.png"
   inkscape:export-xdpi="144.07616"
   inkscape:export-ydpi="144.07616"
   xmlns:inkscape="http://www.inkscape.org/namespaces/inkscape"
   xmlns:sodipodi="http://sodipodi.sourceforge.net/DTD/sodipodi-0.dtd"
   xmlns="http://www.w3.org/2000/svg"
   xmlns:svg="http://www.w3.org/2000/svg">
  <sodipodi:namedview
     id="namedview1"
     pagecolor="#ffffff"
     bordercolor="#000000"
     borderopacity="0.25"
     inkscape:showpageshadow="2"
     inkscape:pageopacity="0.0"
     inkscape:pagecheckerboard="0"
     inkscape:deskcolor="#d1d1d1"
     inkscape:document-units="mm"
     inkscape:zoom="10.766102"
     inkscape:cx="28.701197"
     inkscape:cy="10.913885"
     inkscape:window-width="1440"
     inkscape:window-height="876"
     inkscape:window-x="0"
     inkscape:window-y="24"
     inkscape:window-maximized="0"
     inkscape:current-layer="svg1" />
  <defs
     id="defs1" />
  <g
     id="layer1"
     transform="translate(-292.66167,-141.05601)">
    <ellipse
       style="fill:#ffff00;stroke:#eaa709;stroke-width:0.347238;stroke-dasharray:none;stroke-opacity:1"
       id="path1"
       cx="180.92354"
       cy="-39.506104"
       rx="12.112732"
       ry="13.851262"
       transform="matrix(0.30388856,0.95270759,-0.97509846,0.22177239,0,0)" />
    <path
       id="path3"
       style="fill:#f2f2f2;stroke:#000000;stroke-width:0.169792;stroke-dasharray:none;stroke-opacity:1"
       d="m 242.66143,196.08442 -8.8633,0.005 -6.13504,-0.0408 c 0.80897,-12.0411 6.9276,-2.75692 6.32689,-2.82839 0,0 -1.10338,-6.61527 1.16411,-7.22266 1.72793,-0.46287 3.32102,4.37681 3.32102,4.37681 0,0 3.40008,-2.09724 4.58645,-1.03427 1.63856,1.46809 -0.40013,6.7454 -0.40013,6.7454 z" />
    <path
       id="path5"
       style="fill:#f2f212;fill-opacity:1;stroke-width:0.0786862"
       d="m 279.24949,179.49681 a 6.7570152,6.6200854 0 0 0 -4.73714,6.30945 6.7570152,6.6200854 0 0 0 6.75701,6.62004 6.7570152,6.6200854 0 0 0 6.01815,-3.63999 6.7570152,6.6200854 0 0 1 -2.01993,0.31061 6.7570152,6.6200854 0 0 1 -6.757,-6.62005 6.7570152,6.6200854 0 0 1 0.73891,-2.98006 z" />
    <path
       id="path8"
       style="fill:#418a41;fill-opacity:1;stroke:#1a160e;stroke-width:0.444265;stroke-dasharray:none;stroke-opacity:1"
       d="m 348.338,219.42749 -5.42556,14.38777 c 0.63593,-0.039 0.80543,-0.15393 0.83293,-0.23484 2.5e-4,3.1e-4 3.06321,0.65706 3.06346,0.65739 -0.89493,2.05359 -5.13915,4.60469 -6.77722,9.63436 l 4.02286,-8.9e-4 -8.92514,15.29088 6.19764,0.33736 -9.92635,15.77375 c 10.57357,-0.10667 22.71987,12.76143 31.72064,-0.31974 l -7.68877,-14.68607 5.66402,0.30853 -7.9334,-16.70664 4.77885,-8.9e-4 -5.20567,-8.73666 c 0.64857,-0.50398 1.35651,-1.11923 2.14083,-1.87837 z" />
    <rect
       style="fill:#a05a2c;fill-opacity:1;stroke-width:0.0723101"
       id="rect11"
       width="2.6969185"
       height="16.227892"
       x="346.57053"
       y="279.15158"
       rx="0.47592643"
       ry="8.1139469" />
    <path
       id="path3-2"
       style="fill:#666666;stroke:#000000;stroke-width:0.318162;stroke-dasharray:none;stroke-opacity:1"
       d="m 147.32406,183.90511 -12.87044,0.005 -8.90865,-0.0391 c 1.17466,-11.55607 10.05951,-2.64587 9.18725,-2.71446 0,0 -1.60225,-6.34879 1.69043,-6.93173 2.50913,-0.4442 4.82246,4.2005 4.82246,4.2005 0,0 4.93726,-2.01274 6.66001,-0.99259 2.37935,1.40896 -0.58106,6.47368 -0.58106,6.47368 z" />
    <path
       id="path3-9"
       style="fill:#f9f9f9;stroke:#000000;stroke-width:0.169792;stroke-dasharray:none;stroke-opacity:1"
       d="m 191.98502,212.6513 -8.86328,0.004 -6.13507,-0.0409 c 0.80897,-12.0411 6.92761,-2.75692 6.32694,-2.82838 0,0 -1.1034,-6.61528 1.16408,-7.22266 1.72795,-0.46287 3.32105,4.37679 3.32105,4.37679 0,0 3.40004,-2.09723 4.58645,-1.03425 1.63858,1.46808 -0.40017,6.7454 -0.40017,6.7454 z" />
    <path
       id="path3-9-6"
       style="fill:#cccccc;stroke:#000000;stroke-width:0.439304;stroke-dasharray:none;stroke-opacity:1;paint-order:stroke markers fill"
       d="m 75.072058,207.05697 -8.863289,0.004 -6.135033,-0.0409 c 0.808962,-12.0411 6.927578,-2.75693 6.326898,-2.82839 0,0 -1.103405,-6.61527 1.164089,-7.22266 1.727937,-0.46286 3.321031,4.37679 3.321031,4.37679 0,0 3.400057,-2.09722 4.586453,-1.03425 1.63857,1.46809 -0.400149,6.7454 -0.400149,6.7454 z" />
    <path
       id="path3-9-4"
       style="fill:#b3b3b3;stroke:#000000;stroke-width:0.169792;stroke-dasharray:none;stroke-opacity:1"
       d="m 128.3778,207.84264 -8.86328,0.004 -6.13502,-0.0409 c 0.80896,-12.0411 6.92756,-2.75692 6.32688,-2.82839 0,0 -1.1034,-6.61527 1.16409,-7.22266 1.72794,-0.46287 3.32103,4.37679 3.32103,4.37679 0,0 3.40006,-2.09723 4.58646,-1.03425 1.63856,1.4681 -0.40016,6.7454 -0.40016,6.7454 z" />
    <path
       id="path3-9-0"
       style="fill:#666666;stroke:#000000;stroke-width:0.23178;stroke-dasharray:none;stroke-opacity:1"
       d="m 115.96404,207.68859 -27.056273,0.0104 -18.727937,-0.10651 c 2.469457,-31.33607 21.147276,-7.17469 19.313627,-7.36066 0,0 -3.368271,-17.21576 3.553531,-18.79644 5.274741,-1.20458 10.137842,11.39028 10.137842,11.39028 0,0 10.3791,-5.45788 14.0007,-2.69158 5.00194,3.8206 -1.22149,17.55441 -1.22149,17.55441 z" />
    <path
       id="path8-4"
       style="fill:#418a41;fill-opacity:1;stroke:#1a160e;stroke-width:0.591862;stroke-dasharray:none;stroke-opacity:1"
       d="m 86.292725,217.70624 -5.425595,14.38773 c 0.635963,-0.039 0.805441,-0.15391 0.832943,-0.23482 2.57e-4,3.2e-4 3.063237,0.65707 3.063494,0.65741 -0.894951,2.05358 -5.139169,4.60468 -6.777247,9.63434 l 4.02285,-8.9e-4 -8.925136,15.29089 6.197648,0.33736 -9.926352,15.77372 c 10.573548,-0.10665 22.719875,12.76146 31.72064,-0.31974 l -7.688759,-14.68604 5.664018,0.30853 -7.93342,-16.70665 4.778865,-8.9e-4 -5.205675,-8.73663 c 0.648593,-0.50399 1.356496,-1.11924 2.140835,-1.87838 z" />
    <rect
       style="fill:#a05a2c;fill-opacity:1;stroke-width:0.0723101"
       id="rect11-25"
       width="2.6969185"
       height="16.227892"
       x="84.526451"
       y="278.12421"
       rx="0.47592643"
       ry="8.1139469" />
    <path
       id="path8-7"
       style="fill:#418a41;fill-opacity:1;stroke:#000000;stroke-width:0.296669;stroke-dasharray:none;stroke-opacity:1"
       d="m 110.71831,217.70624 -5.42559,14.38773 c 0.63596,-0.039 0.80544,-0.15391 0.83294,-0.23482 2.5e-4,3.2e-4 3.06323,0.65707 3.06349,0.65741 -0.89495,2.05358 -5.13917,4.60468 -6.77725,9.63434 l 4.02285,-8.9e-4 -8.925132,15.29089 6.197652,0.33736 -9.926356,15.77372 c 10.573556,-0.10665 22.719866,12.76146 31.720636,-0.31974 l -7.68876,-14.68604 5.66401,0.30853 -7.93341,-16.70665 4.77887,-8.9e-4 -5.20569,-8.73663 c 0.64859,-0.50399 1.3565,-1.11924 2.14084,-1.87838 z" />
    <rect
       style="fill:#a05a2c;fill-opacity:1;stroke-width:0.0723101"
       id="rect11-6"
       width="2.6969185"
       height="16.227892"
       x="110.98749"
       y="278.36368"
       rx="0.47592643"
       ry="8.1139469" />
    <rect
       style="fill:#a05a2c;fill-opacity:1;stroke-width:0.0442556"
       id="rect11-2-1"
       width="1.9764659"
       height="8.2943354"
       x="132.49323"
       y="286.69073"
       rx="0.34878787"
       ry="4.1471677" />
    <path
       id="path14-6"
       style="fill:#418a41;fill-opacity:1;stroke:#1a160e;stroke-width:0.501828;stroke-dasharray:none;stroke-opacity:1"
       d="m 133.67379,272.0358 c -1.47583,0.005 -4.36002,0.93917 -4.36002,0.93917 0,0 -1.72876,1.92706 -2.0116,3.23606 -0.47039,2.17668 -0.40793,4.44014 0.7359,6.69314 0.76941,1.51554 3.41188,3.35858 3.41188,3.35858 l 4.38369,-0.10207 c 0,0 2.37158,-1.6749 3.03494,-3.0551 0.84367,-1.75533 1.21386,-4.00888 0.89426,-6.0059 -0.26359,-1.64682 -0.82186,-3.75829 -2.21048,-4.25089 -1.59898,-0.56724 -2.56676,-0.81669 -3.87857,-0.81302 z" />
    <path
       id="rect14"
       style="fill:#d7d7d7;fill-opacity:1;stroke:#1a160e;stroke-width:0.444265;stroke-dasharray:none;stroke-opacity:1"
       d="m 158.08087,256.15815 c -0.16299,0 -0.29405,1.44694 -0.29405,3.24425 0,1.79732 0.13115,3.24426 0.29405,3.24426 h 13.16692 c -0.16298,0 -0.29407,1.8495 -0.29407,4.14703 v 23.83955 c 0,2.2975 0.13116,4.14708 0.29407,4.14708 h 27.4631 c 0.16299,0 0.29404,-1.84958 0.29404,-4.14708 v -23.83955 c 0,-2.29753 -0.13087,-4.14703 -0.29404,-4.14703 h 13.73935 c 0.16299,0 0.29407,-1.44694 0.29407,-3.24426 0,-1.79731 -0.13115,-3.24425 -0.29407,-3.24425 z" />
    <path
       id="rect16"
       style="fill:#d7d7d7;fill-opacity:1;stroke:#1a160e;stroke-width:0.366039;stroke-dasharray:none;stroke-opacity:1"
       d="m 144.43778,275.31472 c -0.12232,0 -0.22072,1.14249 -0.22072,2.56164 0,1.41916 0.0989,2.55134 0.22072,2.56165 l 5.63994,0.47893 c -0.12231,0 -0.81148,1.33404 -0.75787,2.98973 l 0.26856,8.2933 c 0.0537,1.65568 -2.05017,2.27135 -1.92779,2.27135 h 10.94581 c 0.12231,0 0.22074,-1.33336 0.22074,-2.98974 v -8.05382 c 0,-1.65638 -0.0984,-2.98975 -0.22074,-2.98975 h 4.72683 c 0.12231,0 0.22073,-1.14249 0.22073,-2.56165 0,-1.41915 -0.0984,-2.56164 -0.22073,-2.56164 z" />
    <path
       id="rect17"
       style="fill:#d7d7d7;fill-opacity:1;stroke:#1a160e;stroke-width:0.388179;stroke-dasharray:none;stroke-opacity:1"
       d="m 208.56807,274.69675 c -0.12949,0 -0.234,0.84805 -0.234,1.90144 0,1.05335 0.10422,1.9014 0.234,1.9014 h 3.27077 c -0.0533,0.62269 0.13964,3.40271 0.13964,3.40271 l 0.22778,9.41985 c 0.0456,1.88447 -0.80682,3.14917 -1.81597,3.14917 h 11.37648 c -1.92028,0 -1.81601,-0.50347 -1.81601,-2.89565 v -9.92689 c 0,-1.07544 0.19295,-3.03354 1.96194,-3.14919 h 2.13187 c 0.12977,0 0.23398,-0.84805 0.23398,-1.9014 0,-1.05339 -0.10422,-1.90144 -0.23398,-1.90144 z" />
    <path
       style="fill:#ff9955;fill-opacity:1;stroke:none;stroke-width:0.281944;stroke-dasharray:none;stroke-opacity:1;paint-order:markers stroke fill"
       id="path22"
       d="m 77.797695,173.33388 a 6.4145999,5.811727 0 0 1 -3.231928,5.04592 6.4145999,5.811727 0 0 1 -6.439039,-0.0387 6.4145999,5.811727 0 0 1 -3.157667,-5.08437 l 6.414034,0.0772 z"
       transform="matrix(0.99497442,-0.1001294,0.13975342,0.99018634,0,0)" />
    <path
       style="fill:#ffff00;fill-opacity:1;stroke:#f9a909;stroke-width:1.34776;stroke-dasharray:none;stroke-opacity:1;paint-order:markers stroke fill"
       id="rect24"
       width="32.719284"
       height="3.0202434"
       x="27.937239"
       y="33.22266"
       rx="0"
       ry="1.5101217"
       d="m 29.44736,33.22266 h 29.699041 c 0.836607,0 1.510122,0.673514 1.510122,1.510122 0,0.836607 -0.673515,1.510121 -1.510122,1.510121 H 29.44736 c -0.836607,0 -1.510121,-0.673514 -1.510121,-1.510121 0,-0.836608 0.673514,-1.510122 1.510121,-1.510122 z"
       transform="matrix(0.19872477,0.27340884,-0.42525257,0.3173639,86.637841,123.98457)" />
    <path
       style="fill:#ffff00;fill-opacity:1;stroke:#f5a70b;stroke-width:1.09609;stroke-dasharray:none;stroke-opacity:1;paint-order:markers stroke fill"
       id="rect24-6"
       width="32.719284"
       height="3.0202434"
       x="27.937239"
       y="33.22266"
       rx="0"
       ry="1.5101217"
       d="m 29.44736,33.22266 h 29.699041 c 0.836607,0 1.510122,0.673514 1.510122,1.510122 0,0.836607 -0.673515,1.510121 -1.510122,1.510121 H 29.44736 c -0.836607,0 -1.510121,-0.673514 -1.510121,-1.510121 0,-0.836608 0.673514,-1.510122 1.510121,-1.510122 z"
       transform="matrix(0.24590786,0.05818199,0.08355042,0.59904541,58.276052,136.44206)" />
    <path
       style="fill:#ffff00;fill-opacity:1;stroke:#e69a09;stroke-width:1.01248;stroke-dasharray:none;stroke-opacity:1;paint-order:markers stroke fill"
       id="rect24-0"
       width="32.719284"
       height="3.0202434"
       x="27.937239"
       y="33.22266"
       rx="0"
       ry="1.5101217"
       d="m 29.44736,33.22266 h 29.699041 c 0.836607,0 1.510122,0.673514 1.510122,1.510122 0,0.836607 -0.673515,1.510121 -1.510122,1.510121 H 29.44736 c -0.836607,0 -1.510121,-0.673514 -1.510121,-1.510121 0,-0.836608 0.673514,-1.510122 1.510121,-1.510122 z"
       transform="matrix(-0.30382633,0.18025796,-0.43347184,-0.34179883,143.17498,158.34869)" />
    <path
       style="fill:#ffff00;fill-opacity:1;stroke:#f6a708;stroke-width:1.34121;stroke-dasharray:none;stroke-opacity:1;paint-order:markers stroke fill"
       id="rect24-1"
       width="32.719284"
       height="3.0202434"
       x="27.937239"
       y="33.22266"
       rx="0"
       ry="1.5101217"
       d="m 29.44736,33.22266 h 29.699041 c 0.836607,0 1.510122,0.673514 1.510122,1.510122 0,0.836607 -0.673515,1.510121 -1.510122,1.510121 H 29.44736 c -0.836607,0 -1.510121,-0.673514 -1.510121,-1.510121 0,-0.836608 0.673514,-1.510122 1.510121,-1.510122 z"
       transform="matrix(0.21940899,0.25590618,-0.37953828,0.38675734,109.39835,155.8577)" />
    <path
       style="fill:#ffff00;fill-opacity:1;stroke:#f4a608;stroke-width:1.01248;stroke-dasharray:none;stroke-opacity:1;paint-order:markers stroke fill"
       id="rect24-8"
       width="32.719284"
       height="3.0202434"
       x="27.937239"
       y="33.22266"
       rx="0"
       ry="1.5101217"
       d="m 29.44736,33.22266 h 29.699041 c 0.836607,0 1.510122,0.673514 1.510122,1.510122 0,0.836607 -0.673515,1.510121 -1.510122,1.510121 H 29.44736 c -0.836607,0 -1.510121,-0.673514 -1.510121,-1.510121 0,-0.836608 0.673514,-1.510122 1.510121,-1.510122 z"
       transform="matrix(-0.32839562,0.14453241,-0.37829002,-0.38766979,101.54304,179.83325)" />
    <path
       style="fill:#ffff00;fill-opacity:1;stroke:#f6a80d;stroke-width:1.09609;stroke-dasharray:none;stroke-opacity:1;paint-order:markers stroke fill"
       id="rect24-6-7"
       width="32.719284"
       height="3.0202434"
       x="27.937239"
       y="33.22266"
       rx="0"
       ry="1.5101217"
       d="m 29.44736,33.22266 h 29.699041 c 0.836607,0 1.510122,0.673514 1.510122,1.510122 0,0.836607 -0.673515,1.510121 -1.510122,1.510121 H 29.44736 c -0.836607,0 -1.510121,-0.673514 -1.510121,-1.510121 0,-0.836608 0.673514,-1.510122 1.510121,-1.510122 z"
       transform="matrix(-0.0895511,0.22616577,-0.63321216,0.00850978,127.31008,135.76109)" />
    <path
       style="fill:#ffff00;fill-opacity:1;stroke:#f6a708;stroke-width:1.09609;stroke-dasharray:none;stroke-opacity:1;paint-order:markers stroke fill"
       id="rect24-6-72"
       width="32.719284"
       height="3.0202434"
       x="27.937239"
       y="33.22266"
       rx="0"
       ry="1.5101217"
       d="m 29.44736,33.22266 h 29.699041 c 0.836607,0 1.510122,0.673514 1.510122,1.510122 0,0.836607 -0.673515,1.510121 -1.510122,1.510121 H 29.44736 c -0.836607,0 -1.510121,-0.673514 -1.510121,-1.510121 0,-0.836608 0.673514,-1.510122 1.510121,-1.510122 z"
       transform="matrix(-0.11045054,0.21758774,-0.63145912,-0.04573172,111.84285,171.73336)" />
    <path
       style="fill:#ffff00;fill-opacity:1;stroke:#f5a607;stroke-width:1.46764;stroke-dasharray:none;stroke-opacity:1;paint-order:markers stroke fill"
       id="rect24-6-0"
       width="32.719284"
       height="3.0202434"
       x="27.937239"
       y="33.22266"
       rx="0"
       ry="1.5101217"
       d="m 29.44736,33.22266 h 29.699041 c 0.836607,0 1.510122,0.673514 1.510122,1.510122 0,0.836607 -0.673515,1.510121 -1.510122,1.510121 H 29.44736 c -0.836607,0 -1.510121,-0.673514 -1.510121,-1.510121 0,-0.836608 0.673514,-1.510122 1.510121,-1.510122 z"
       transform="matrix(0.24590786,0.05818199,0.08355042,0.59904541,99.709295,144.8011)" />
    <path
       style="fill:#ffff00;fill-opacity:1;stroke:#f6a708;stroke-width:0.269512;stroke-dasharray:none;stroke-opacity:1;paint-order:markers stroke fill"
       id="path24"
       d="m 136.23327,146.79155 a 0.13433158,5.9762402 0 0 1 1e-5,-0.0794" />
    <path
       style="fill:#ffff00;fill-opacity:1;stroke:#f6a708;stroke-width:0.269512;stroke-dasharray:none;stroke-opacity:1;paint-order:markers stroke fill"
       id="path25"
       d="m 123.87477,114.03103 a 9.4032106,2.2709711 0 0 1 8.3e-4,-0.0302" />
    <path
       style="fill:#ffff00;fill-opacity:1;stroke:#f6a708;stroke-width:0.269512;stroke-dasharray:none;stroke-opacity:1;paint-order:markers stroke fill"
       id="path26"
       d="m 150.74109,140.45676 a 2.417968,2.0319216 0 0 1 2.1e-4,-0.027" />
    <path
       style="fill:#ffb380;fill-opacity:1;stroke:#f6a708;stroke-width:0.07068;stroke-dasharray:none;stroke-opacity:1;paint-order:markers stroke fill"
       id="path29"
       d="m -114.52691,-135.91338 a 2.990514,1.7192701 0 0 1 1.75992,2.03908 2.990514,1.7192701 0 0 1 -3.30225,1.2559 2.990514,1.7192701 0 0 1 -2.5757,-1.72882 l 2.99017,0.0261 z"
       transform="matrix(-0.97162291,-0.23653526,0.17287187,-0.98494432,0,0)" />
    <path
       style="fill:#ffb380;fill-opacity:1;stroke:#f6a708;stroke-width:0.0729566;stroke-dasharray:none;stroke-opacity:1;paint-order:markers stroke fill"
       id="path29-7"
       d="m -118.42035,-125.04938 a 2.7320611,2.0050952 0 0 1 1.60782,2.37807 2.7320611,2.0050952 0 0 1 -3.01686,1.4647 2.7320611,2.0050952 0 0 1 -2.35309,-2.01624 l 2.73174,0.0305 z"
       transform="matrix(-0.95271799,-0.30385593,0.13278367,-0.99114504,0,0)" />
    <path
       id="path3-9-7"
       style="fill:#f9f9f9;stroke:#000000;stroke-width:0.134756;stroke-dasharray:none;stroke-opacity:1"
       d="m 239.50113,220.10127 -26.43695,0.009 -18.29935,-0.0928 c 2.41295,-27.27494 16.1996,-13.10501 14.40797,-13.2669 0,0 3.50563,-9.32759 7.93583,-9.50026 4.96489,-0.19353 9.90585,9.91411 9.90585,9.91411 0,0 10.14149,-4.75055 13.68023,-2.34276 4.8875,3.32546 -1.19358,15.27937 -1.19358,15.27937 z" />
    <rect
       style="fill:#784421;fill-opacity:1;stroke:#000000;stroke-width:0.134756;stroke-dasharray:none;stroke-opacity:1"
       id="rect9"
       width="423.64471"
       height="5.4159145"
       x="0.40278202"
       y="294.46365" />
    <path
       id="path8-0-1"
       style="fill:#418a41;fill-opacity:1;stroke:#1a160e;stroke-width:0.444265;stroke-dasharray:none;stroke-opacity:1"
       d="m 404.22865,218.62275 -5.42557,14.38777 c 0.63594,-0.039 0.80543,-0.15392 0.83293,-0.23485 2.5e-4,3.4e-4 3.06321,0.65707 3.06346,0.65742 -0.89492,2.05356 -5.13915,4.60467 -6.77722,9.63434 l 4.02286,-8.9e-4 -8.92514,15.29089 6.19764,0.33737 -9.92635,15.77374 c 10.57357,-0.10667 22.71987,12.76144 31.72064,-0.31974 l -7.68877,-14.68606 5.66402,0.30852 -7.9334,-16.70664 4.77885,-8.9e-4 -5.20567,-8.73666 c 0.64857,-0.50398 1.35651,-1.11923 2.14083,-1.87838 z" />
    <rect
       style="fill:#a05a2c;fill-opacity:1;stroke-width:0.0723101"
       id="rect11-5-4"
       width="2.6969185"
       height="16.227892"
       x="402.46121"
       y="278.34674"
       rx="0.47592643"
       ry="8.1139469" />
    <path
       style="fill:#ffff00;fill-opacity:1;stroke:#000000;stroke-width:0.142857;stroke-dasharray:none;stroke-opacity:1"
       id="path10-4-9"
       d="m 261.17145,184.26524 7.30224,-36.56473 -29.33397,-21.73418 31.01864,-20.69171 -5.37387,-36.110632 36.56473,7.302245 21.73418,-29.333974 20.6917,31.018637 36.11064,-5.373867 -7.30224,36.564731 29.33397,21.73418 -31.01864,20.6917 5.37387,36.11064 -36.56473,-7.30225 -21.73418,29.33398 -20.6917,-31.01864 z"
       transform="matrix(0.06546584,0,0,0.05300178,370.64623,277.48102)" />
    <ellipse
       style="fill:#501616;fill-opacity:1;stroke:#000000;stroke-width:0.00425405;stroke-dasharray:none;stroke-opacity:1"
       id="path11-9-5"
       ry="1.1782153"
       rx="2.0401478"
       cy="284.24768"
       cx="391.60947" />
    <ellipse
       style="fill:#280b0b;fill-opacity:1;stroke:#000000;stroke-width:0.00840169;stroke-dasharray:none;stroke-opacity:1"
       id="path13-6-0-9"
       cx="392.42044"
       cy="283.75034"
       rx="0.20210047"
       ry="0.21885514" />
    <ellipse
       style="fill:#280b0b;fill-opacity:1;stroke:#000000;stroke-width:0.00840169;stroke-dasharray:none;stroke-opacity:1"
       id="path13-5-0-0"
       cx="390.54581"
       cy="283.71024"
       rx="0.20210047"
       ry="0.21885514" />
    <ellipse
       style="fill:#280b0b;fill-opacity:1;stroke:#000000;stroke-width:0.00840169;stroke-dasharray:none;stroke-opacity:1"
       id="path13-39-0-2"
       cx="391.11316"
       cy="284.9924"
       rx="0.20210047"
       ry="0.21885514" />
    <ellipse
       style="fill:#280b0b;fill-opacity:1;stroke:#000000;stroke-width:0.00840169;stroke-dasharray:none;stroke-opacity:1"
       id="path13-18-3-3"
       cx="392.59311"
       cy="284.85214"
       rx="0.20210047"
       ry="0.21885514" />
    <ellipse
       style="fill:#280b0b;fill-opacity:1;stroke:#000000;stroke-width:0.00840169;stroke-dasharray:none;stroke-opacity:1"
       id="path13-3-2-5"
       cx="391.45847"
       cy="284.61176"
       rx="0.20210047"
       ry="0.21885514" />
    <ellipse
       style="fill:#280b0b;fill-opacity:1;stroke:#000000;stroke-width:0.00840169;stroke-dasharray:none;stroke-opacity:1"
       id="path13-4-8-9"
       cx="391.87781"
       cy="283.71024"
       rx="0.20210047"
       ry="0.21885514" />
    <ellipse
       style="fill:#280b0b;fill-opacity:1;stroke:#000000;stroke-width:0.00840169;stroke-dasharray:none;stroke-opacity:1"
       id="path13-7-2-0"
       cx="392.61777"
       cy="284.19107"
       rx="0.20210047"
       ry="0.21885514" />
    <ellipse
       style="fill:#280b0b;fill-opacity:1;stroke:#000000;stroke-width:0.00840169;stroke-dasharray:none;stroke-opacity:1"
       id="path13-1-4-1"
       cx="390.57047"
       cy="284.47156"
       rx="0.20210047"
       ry="0.21885514" />
    <ellipse
       style="fill:#280b0b;fill-opacity:1;stroke:#000000;stroke-width:0.00840169;stroke-dasharray:none;stroke-opacity:1"
       id="path13-9-8-3"
       cx="391.95178"
       cy="284.69189"
       rx="0.20210047"
       ry="0.21885514" />
    <path
       style="fill:#280b0b;fill-opacity:1;stroke:#000000;stroke-width:0.00840169;stroke-dasharray:none;stroke-opacity:1"
       id="path12-3-6"
       d="m 390.87678,283.79819 a 0.06736683,0.09574911 0 0 1 -1.2e-4,0.006" />
    <ellipse
       style="fill:#280b0b;fill-opacity:1;stroke:#000000;stroke-width:0.00840169;stroke-dasharray:none;stroke-opacity:1"
       id="path13-50-9"
       cx="391.21362"
       cy="283.94867"
       rx="0.20210047"
       ry="0.21885514" />
    <path
       d="m 391.44631,288.71911 v 2.36013 l -2.38749,-1.6021 -0.31449,0.37113 2.55507,1.71443 0.14691,-0.17341 v 2.66295 h 0.41785 v -1.72362 l 0.30193,0.20166 2.07742,-2.46327 -0.41785,-0.27917 -1.9615,2.32598 v -3.39471 z"
       style="fill:#008000;stroke:#000000;stroke-width:0.134756"
       id="path18-0-0" />
    <path
       id="path8-45"
       style="fill:#418a41;fill-opacity:1;stroke:#1a160e;stroke-width:0.444265;stroke-dasharray:none;stroke-opacity:1"
       d="m 353.70344,217.56297 -5.42558,14.38776 c 0.63594,-0.039 0.80544,-0.15392 0.83294,-0.23483 2.5e-4,3.2e-4 3.06321,0.65706 3.06346,0.65739 -0.89493,2.05358 -5.13914,4.60469 -6.77721,9.63435 l 4.02286,-8.9e-4 -8.92515,15.29089 6.19764,0.33736 -9.92634,15.77374 c 10.57355,-0.10666 22.71987,12.76144 31.72062,-0.31974 l -7.68877,-14.68607 5.66403,0.30854 -7.9334,-16.70664 4.77886,-8.8e-4 -5.20567,-8.73667 c 0.64857,-0.50398 1.3565,-1.11923 2.14083,-1.87837 z" />
    <rect
       style="fill:#a05a2c;fill-opacity:1;stroke-width:0.0723101"
       id="rect11-3"
       width="2.6969185"
       height="16.227892"
       x="356.10681"
       y="279.02655"
       rx="0.47592643"
       ry="8.1139469" />
    <path
       id="path8-0"
       style="fill:#418a41;fill-opacity:1;stroke:#1a160e;stroke-width:0.444265;stroke-dasharray:none;stroke-opacity:1"
       d="m 318.4269,218.89894 -5.42558,14.38778 c 0.63594,-0.039 0.80543,-0.15393 0.83294,-0.23486 2.5e-4,3.3e-4 3.06321,0.65706 3.06346,0.65742 -0.89492,2.05356 -5.13914,4.60467 -6.77721,9.63435 l 4.02286,-8.9e-4 -8.92515,15.29089 6.19764,0.33736 -9.92634,15.77375 c 10.57356,-0.10668 22.71987,12.76142 31.72063,-0.31975 l -7.68877,-14.68606 5.66403,0.30852 -7.9334,-16.70664 4.77885,-8.9e-4 -5.20567,-8.73665 c 0.64857,-0.50399 1.35651,-1.11925 2.14083,-1.87838 z" />
    <rect
       style="fill:#a05a2c;fill-opacity:1;stroke-width:0.0723101"
       id="rect11-5"
       width="2.6969185"
       height="16.227892"
       x="316.65948"
       y="278.62299"
       rx="0.47592643"
       ry="8.1139469" />
    <rect
       style="fill:#a05a2c;fill-opacity:1;stroke-width:0.0442556"
       id="rect11-2-2"
       width="1.9764659"
       height="8.2943354"
       x="293.6474"
       y="285.16174"
       rx="0.34878787"
       ry="4.1471677" />
    <path
       id="path14-3"
       style="fill:#418a41;fill-opacity:1;stroke:#1a160e;stroke-width:0.525444;stroke-dasharray:none;stroke-opacity:1"
       d="m 294.67714,260.00148 c -1.59268,0.006 -4.70533,1.69384 -4.70533,1.69384 0,0 -1.86569,3.47555 -2.17095,5.83634 -0.50763,3.92576 -0.44022,8.00807 0.7942,12.07149 0.83033,2.73336 3.68211,6.05737 3.68211,6.05737 l 4.73092,-0.184 c 0,0 2.55941,-3.02075 3.27533,-5.51003 0.91049,-3.16584 1.31,-7.23024 0.96507,-10.83195 -0.28445,-2.97021 -0.88695,-6.77828 -2.38556,-7.66671 -1.72564,-1.02306 -2.77005,-1.47301 -4.18579,-1.46635 z" />
    <rect
       style="fill:#a05a2c;fill-opacity:1;stroke-width:0.0442556"
       id="rect11-2-8-8"
       width="1.9764659"
       height="8.2943354"
       x="337.68503"
       y="286.02328"
       rx="0.34878787"
       ry="4.1471677" />
    <path
       id="path14-0-7"
       style="fill:#418a41;fill-opacity:1;stroke:#1a160e;stroke-width:0.366039;stroke-dasharray:none;stroke-opacity:1"
       d="m 338.71668,267.66077 c -1.59271,0.005 -4.70535,1.2247 -4.70535,1.2247 0,0 -1.86569,2.513 -2.17094,4.21997 -0.50764,2.83851 -0.44021,5.79018 0.79419,8.72819 0.83037,1.97632 3.68214,4.37973 3.68214,4.37973 l 4.73089,-0.13303 c 0,0 2.55944,-2.18416 3.27534,-3.98399 0.9105,-2.28902 1.31002,-5.22777 0.9651,-7.83195 -0.2845,-2.14757 -0.88698,-4.901 -2.38556,-5.54339 -1.72567,-0.7397 -2.77007,-1.06504 -4.18581,-1.06023 z" />
    <path
       style="fill:#ffff00;fill-opacity:1;stroke:#000000;stroke-width:0.142857;stroke-dasharray:none;stroke-opacity:1"
       id="path10"
       d="m 261.17145,184.26524 7.30224,-36.56473 -29.33397,-21.73418 31.01864,-20.69171 -5.37387,-36.110632 36.56473,7.302245 21.73418,-29.333974 20.6917,31.018637 36.11064,-5.373867 -7.30224,36.564731 29.33397,21.73418 -31.01864,20.6917 5.37387,36.11064 -36.56473,-7.30225 -21.73418,29.33398 -20.6917,-31.01864 z"
       transform="matrix(0.06546584,0,0,0.05300178,348.34183,277.93883)" />
    <ellipse
       style="fill:#280b0b;fill-opacity:1;stroke:#000000;stroke-width:0.00840169;stroke-dasharray:none;stroke-opacity:1"
       id="path13-6-6"
       cx="367.05115"
       cy="284.87741"
       rx="0.20210047"
       ry="0.21885514" />
    <ellipse
       style="fill:#280b0b;fill-opacity:1;stroke:#000000;stroke-width:0.00571025;stroke-dasharray:none;stroke-opacity:1"
       id="path13-18-0"
       cx="367.15491"
       cy="288.70016"
       rx="0.13345525"
       ry="0.1530963" />
    <ellipse
       style="fill:#280b0b;fill-opacity:1;stroke:#000000;stroke-width:0.00840169;stroke-dasharray:none;stroke-opacity:1"
       id="path13-3-49"
       cx="366.08914"
       cy="285.73886"
       rx="0.20210047"
       ry="0.21885514" />
    <ellipse
       style="fill:#280b0b;fill-opacity:1;stroke:#000000;stroke-width:0.00840169;stroke-dasharray:none;stroke-opacity:1"
       id="path13-4-94"
       cx="366.50848"
       cy="284.83734"
       rx="0.20210047"
       ry="0.21885514" />
    <ellipse
       style="fill:#280b0b;fill-opacity:1;stroke:#000000;stroke-width:0.00571025;stroke-dasharray:none;stroke-opacity:1"
       id="path13-7-5"
       cx="367.1712"
       cy="288.23773"
       rx="0.13345525"
       ry="0.1530963" />
    <ellipse
       style="fill:#280b0b;fill-opacity:1;stroke:#000000;stroke-width:0.00840169;stroke-dasharray:none;stroke-opacity:1"
       id="path13-9-0"
       cx="366.58246"
       cy="285.81897"
       rx="0.20210047"
       ry="0.21885514" />
    <path
       style="fill:#008000;fill-opacity:1;stroke:#000000;stroke-width:0.18;stroke-dasharray:none;stroke-opacity:1;paint-order:markers fill stroke"
       id="path20-6"
       d="m 394.23894,277.96125 -1.16844,-0.74889 -1.47176,0.64326 a 5.4857487,5.4857487 24.524454 0 1 -7.43334,-3.3914 l -0.89247,-2.85793 -1.54093,-0.45327 a 5.4857487,5.4857487 64.524454 0 1 -3.51431,-7.37602 l 1.15337,-2.76297 -0.88906,-1.33771 a 5.4857487,5.4857487 104.52445 0 1 2.04909,-7.90931 l 2.65953,-1.37519 0.17881,-1.59622 a 5.4857487,5.4857487 144.52445 0 1 6.6537,-4.74176 7.9758004,7.9758004 155.72329 0 0 6.85639,-3.09242 5.1918373,5.1918373 35.517778 0 1 6.29391,4.49234 l 0.72724,0.95318 a 0.51746828,0.51746828 24.524454 0 0 0.44397,0.20256 7.4696602,7.4696602 50.921567 0 1 7.01319,8.63636 7.5789686,7.5789686 89.777718 0 1 0.0438,11.28798 6.9252405,6.9252405 124.52445 0 1 -5.84577,8.49789 l -1.37646,0.17736 a 6.9252405,6.9252405 164.52445 0 1 -9.94045,2.75216 z"
       transform="matrix(0.66035044,0,0,0.62243508,122.63606,112.23966)" />
    <path
       style="fill:#008000;fill-opacity:1;stroke:#000000;stroke-width:0.18;stroke-dasharray:none;stroke-opacity:1;paint-order:markers fill stroke"
       id="path20-4-9"
       d="m 394.23894,277.96125 -1.16844,-0.74889 -1.47176,0.64326 a 5.4857487,5.4857487 24.524454 0 1 -7.43334,-3.3914 l -0.89247,-2.85793 -1.54093,-0.45327 a 5.4857487,5.4857487 64.524454 0 1 -3.51431,-7.37602 l 1.15337,-2.76297 -0.88906,-1.33771 a 5.4857487,5.4857487 104.52445 0 1 2.04909,-7.90931 l 2.65953,-1.37519 0.17881,-1.59622 a 5.4857487,5.4857487 144.52445 0 1 6.6537,-4.74176 7.9758004,7.9758004 155.72329 0 0 6.85639,-3.09242 5.1918373,5.1918373 35.517778 0 1 6.29391,4.49234 l 0.72724,0.95318 a 0.51746828,0.51746828 24.524454 0 0 0.44397,0.20256 7.4696602,7.4696602 50.921567 0 1 7.01319,8.63636 7.5789686,7.5789686 89.777718 0 1 0.0438,11.28798 6.9252405,6.9252405 124.52445 0 1 -5.84577,8.49789 l -1.37646,0.17736 a 6.9252405,6.9252405 164.52445 0 1 -9.94045,2.75216 z"
       transform="matrix(0.13405238,0,0,0.11566128,336.47298,255.24771)" />
    <path
       style="fill:#008000;fill-opacity:1;stroke:#000000;stroke-width:0.18;stroke-dasharray:none;stroke-opacity:1;paint-order:markers fill stroke"
       id="path20-4-8-0"
       d="m 394.23894,277.96125 -1.16844,-0.74889 -1.47176,0.64326 a 5.4857487,5.4857487 24.524454 0 1 -7.43334,-3.3914 l -0.89247,-2.85793 -1.54093,-0.45327 a 5.4857487,5.4857487 64.524454 0 1 -3.51431,-7.37602 l 1.15337,-2.76297 -0.88906,-1.33771 a 5.4857487,5.4857487 104.52445 0 1 2.04909,-7.90931 l 2.65953,-1.37519 0.17881,-1.59622 a 5.4857487,5.4857487 144.52445 0 1 6.6537,-4.74176 7.9758004,7.9758004 155.72329 0 0 6.85639,-3.09242 5.1918373,5.1918373 35.517778 0 1 6.29391,4.49234 l 0.72724,0.95318 a 0.51746828,0.51746828 24.524454 0 0 0.44397,0.20256 7.4696602,7.4696602 50.921567 0 1 7.01319,8.63636 7.5789686,7.5789686 89.777718 0 1 0.0438,11.28798 6.9252405,6.9252405 124.52445 0 1 -5.84577,8.49789 l -1.37646,0.17736 a 6.9252405,6.9252405 164.52445 0 1 -9.94045,2.75216 z"
       transform="matrix(0.17387316,0,0,0.16928268,308.25083,244.38883)" />
    <rect
       style="fill:#502d16;fill-opacity:1;stroke:#000000;stroke-width:0.115401;stroke-dasharray:none;stroke-opacity:1;paint-order:markers fill stroke"
       id="rect20-8"
       width="2.2379019"
       height="9.4923382"
       x="382.89343"
       y="285.48389" />
    <rect
       style="fill:#502d16;fill-opacity:1;stroke:#000000;stroke-width:0.115495;stroke-dasharray:none;stroke-opacity:1;paint-order:markers fill stroke"
       id="rect21-8"
       width="0.60743392"
       height="4.7207713"
       x="-6.2008381"
       y="477.87338"
       transform="matrix(0.64281233,-0.7660237,0.80170629,0.59771818,0,0)" />
    <rect
       style="fill:#502d16;fill-opacity:1;stroke:#000000;stroke-width:0.115492;stroke-dasharray:none;stroke-opacity:1;paint-order:markers fill stroke"
       id="rect22-2"
       width="0.71336353"
       height="5.4799519"
       x="482.60947"
       y="14.037385"
       transform="matrix(0.82179986,0.56977627,-0.61521185,0.78836183,0,0)" />
    <ellipse
       style="fill:#501616;fill-opacity:1;stroke:#000000;stroke-width:0.00425405;stroke-dasharray:none;stroke-opacity:1"
       id="path11"
       ry="1.1782153"
       rx="2.0401478"
       cy="284.70551"
       cx="369.30508" />
    <ellipse
       style="fill:#280b0b;fill-opacity:1;stroke:#000000;stroke-width:0.00840169;stroke-dasharray:none;stroke-opacity:1"
       id="path13-6"
       cx="370.11606"
       cy="284.20816"
       rx="0.20210047"
       ry="0.21885514" />
    <ellipse
       style="fill:#280b0b;fill-opacity:1;stroke:#000000;stroke-width:0.00840169;stroke-dasharray:none;stroke-opacity:1"
       id="path13-5"
       cx="368.24142"
       cy="284.16809"
       rx="0.20210047"
       ry="0.21885514" />
    <ellipse
       style="fill:#280b0b;fill-opacity:1;stroke:#000000;stroke-width:0.00840169;stroke-dasharray:none;stroke-opacity:1"
       id="path13-39"
       cx="368.80875"
       cy="285.45023"
       rx="0.20210047"
       ry="0.21885514" />
    <ellipse
       style="fill:#280b0b;fill-opacity:1;stroke:#000000;stroke-width:0.00571025;stroke-dasharray:none;stroke-opacity:1"
       id="path13-18"
       cx="370.21982"
       cy="288.03091"
       rx="0.13345525"
       ry="0.1530963" />
    <ellipse
       style="fill:#280b0b;fill-opacity:1;stroke:#000000;stroke-width:0.00840169;stroke-dasharray:none;stroke-opacity:1"
       id="path13-3"
       cx="369.15408"
       cy="285.06961"
       rx="0.20210047"
       ry="0.21885514" />
    <ellipse
       style="fill:#280b0b;fill-opacity:1;stroke:#000000;stroke-width:0.00840169;stroke-dasharray:none;stroke-opacity:1"
       id="path13-4"
       cx="369.57343"
       cy="284.16809"
       rx="0.20210047"
       ry="0.21885514" />
    <ellipse
       style="fill:#280b0b;fill-opacity:1;stroke:#000000;stroke-width:0.00571025;stroke-dasharray:none;stroke-opacity:1"
       id="path13-7"
       cx="370.23611"
       cy="287.56848"
       rx="0.13345525"
       ry="0.1530963" />
    <ellipse
       style="fill:#280b0b;fill-opacity:1;stroke:#000000;stroke-width:0.00840169;stroke-dasharray:none;stroke-opacity:1"
       id="path13-1"
       cx="368.26608"
       cy="284.92941"
       rx="0.20210047"
       ry="0.21885514" />
    <ellipse
       style="fill:#280b0b;fill-opacity:1;stroke:#000000;stroke-width:0.00840169;stroke-dasharray:none;stroke-opacity:1"
       id="path13-9"
       cx="369.6474"
       cy="285.14972"
       rx="0.20210047"
       ry="0.21885514" />
    <path
       style="fill:#280b0b;fill-opacity:1;stroke:#000000;stroke-width:0.00840169;stroke-dasharray:none;stroke-opacity:1"
       id="path12"
       d="m 368.57237,284.25601 a 0.06736683,0.09574911 0 0 1 -1.2e-4,0.006" />
    <ellipse
       style="fill:#280b0b;fill-opacity:1;stroke:#000000;stroke-width:0.00840169;stroke-dasharray:none;stroke-opacity:1"
       id="path13"
       cx="368.90921"
       cy="284.40652"
       rx="0.20210047"
       ry="0.21885514" />
    <path
       d="m 369.14191,289.17691 v 2.36014 l -2.38748,-1.60211 -0.31449,0.37114 2.55506,1.71443 0.14691,-0.17342 v 2.66296 h 0.41785 v -1.72363 l 0.30193,0.20166 2.07743,-2.46327 -0.41785,-0.27917 -1.96151,2.32599 v -3.39472 z"
       style="fill:#008000;stroke:#000000;stroke-width:0.134756"
       id="path18" />
    <path
       style="fill:#ffff00;fill-opacity:1;stroke:#000000;stroke-width:0.142857;stroke-dasharray:none;stroke-opacity:1"
       id="path10-4"
       d="m 261.17145,184.26524 7.30224,-36.56473 -29.33397,-21.73418 31.01864,-20.69171 -5.37387,-36.110632 36.56473,7.302245 21.73418,-29.333974 20.6917,31.018637 36.11064,-5.373867 -7.30224,36.564731 29.33397,21.73418 -31.01864,20.6917 5.37387,36.11064 -36.56473,-7.30225 -21.73418,29.33398 -20.6917,-31.01864 z"
       transform="matrix(0.06546584,0,0,0.05300178,284.84448,277.75721)" />
    <ellipse
       style="fill:#501616;fill-opacity:1;stroke:#000000;stroke-width:0.00425405;stroke-dasharray:none;stroke-opacity:1"
       id="path11-9"
       ry="1.1782153"
       rx="2.0401478"
       cy="284.5239"
       cx="305.80771" />
    <ellipse
       style="fill:#280b0b;fill-opacity:1;stroke:#000000;stroke-width:0.00840169;stroke-dasharray:none;stroke-opacity:1"
       id="path13-6-0"
       cx="306.61868"
       cy="284.02655"
       rx="0.20210047"
       ry="0.21885514" />
    <ellipse
       style="fill:#280b0b;fill-opacity:1;stroke:#000000;stroke-width:0.00840169;stroke-dasharray:none;stroke-opacity:1"
       id="path13-5-0"
       cx="304.74408"
       cy="283.98648"
       rx="0.20210047"
       ry="0.21885514" />
    <ellipse
       style="fill:#280b0b;fill-opacity:1;stroke:#000000;stroke-width:0.00840169;stroke-dasharray:none;stroke-opacity:1"
       id="path13-39-0"
       cx="305.3114"
       cy="285.26862"
       rx="0.20210047"
       ry="0.21885514" />
    <ellipse
       style="fill:#280b0b;fill-opacity:1;stroke:#000000;stroke-width:0.00840169;stroke-dasharray:none;stroke-opacity:1"
       id="path13-18-3"
       cx="306.79135"
       cy="285.12842"
       rx="0.20210047"
       ry="0.21885514" />
    <ellipse
       style="fill:#280b0b;fill-opacity:1;stroke:#000000;stroke-width:0.00840169;stroke-dasharray:none;stroke-opacity:1"
       id="path13-3-2"
       cx="305.65671"
       cy="284.888"
       rx="0.20210047"
       ry="0.21885514" />
    <ellipse
       style="fill:#280b0b;fill-opacity:1;stroke:#000000;stroke-width:0.00840169;stroke-dasharray:none;stroke-opacity:1"
       id="path13-4-8"
       cx="306.07605"
       cy="283.98648"
       rx="0.20210047"
       ry="0.21885514" />
    <ellipse
       style="fill:#280b0b;fill-opacity:1;stroke:#000000;stroke-width:0.00840169;stroke-dasharray:none;stroke-opacity:1"
       id="path13-7-2"
       cx="306.81604"
       cy="284.46732"
       rx="0.20210047"
       ry="0.21885514" />
    <ellipse
       style="fill:#280b0b;fill-opacity:1;stroke:#000000;stroke-width:0.00840169;stroke-dasharray:none;stroke-opacity:1"
       id="path13-1-4"
       cx="304.76874"
       cy="284.7478"
       rx="0.20210047"
       ry="0.21885514" />
    <ellipse
       style="fill:#280b0b;fill-opacity:1;stroke:#000000;stroke-width:0.00840169;stroke-dasharray:none;stroke-opacity:1"
       id="path13-9-8"
       cx="306.15002"
       cy="284.96814"
       rx="0.20210047"
       ry="0.21885514" />
    <path
       style="fill:#280b0b;fill-opacity:1;stroke:#000000;stroke-width:0.00840169;stroke-dasharray:none;stroke-opacity:1"
       id="path12-3"
       d="m 305.07503,284.0744 a 0.06736683,0.09574911 0 0 1 -1.2e-4,0.006" />
    <ellipse
       style="fill:#280b0b;fill-opacity:1;stroke:#000000;stroke-width:0.00840169;stroke-dasharray:none;stroke-opacity:1"
       id="path13-50"
       cx="305.41187"
       cy="284.22491"
       rx="0.20210047"
       ry="0.21885514" />
    <path
       d="m 305.64456,288.9953 v 2.36014 l -2.38748,-1.60211 -0.31449,0.37113 2.55506,1.71443 0.14691,-0.17341 v 2.66295 h 0.41785 v -1.72362 l 0.30193,0.20165 2.07743,-2.46326 -0.41785,-0.27917 -1.96151,2.32599 v -3.39472 z"
       style="fill:#008000;stroke:#000000;stroke-width:0.134756"
       id="path18-0" />
    <path
       style="fill:#ffff00;fill-opacity:1;stroke:#000000;stroke-width:0.142857;stroke-dasharray:none;stroke-opacity:1"
       id="path10-1"
       d="m 261.17145,184.26524 7.30224,-36.56473 -29.33397,-21.73418 31.01864,-20.69171 -5.37387,-36.110632 36.56473,7.302245 21.73418,-29.333974 20.6917,31.018637 36.11064,-5.373867 -7.30224,36.564731 29.33397,21.73418 -31.01864,20.6917 5.37387,36.11064 -36.56473,-7.30225 -21.73418,29.33398 -20.6917,-31.01864 z"
       transform="matrix(0.06546584,0,0,0.05300178,78.088917,277.75721)" />
    <ellipse
       style="fill:#501616;fill-opacity:1;stroke:#000000;stroke-width:0.00425405;stroke-dasharray:none;stroke-opacity:1"
       id="path11-4"
       ry="1.1782153"
       rx="2.0401478"
       cy="284.5239"
       cx="99.052132" />
    <ellipse
       style="fill:#280b0b;fill-opacity:1;stroke:#000000;stroke-width:0.00840169;stroke-dasharray:none;stroke-opacity:1"
       id="path13-6-00"
       cx="99.863113"
       cy="284.02655"
       rx="0.20210047"
       ry="0.21885514" />
    <ellipse
       style="fill:#280b0b;fill-opacity:1;stroke:#000000;stroke-width:0.00840169;stroke-dasharray:none;stroke-opacity:1"
       id="path13-5-8"
       cx="97.988487"
       cy="283.98648"
       rx="0.20210047"
       ry="0.21885514" />
    <ellipse
       style="fill:#280b0b;fill-opacity:1;stroke:#000000;stroke-width:0.00840169;stroke-dasharray:none;stroke-opacity:1"
       id="path13-39-7"
       cx="98.555817"
       cy="285.26862"
       rx="0.20210047"
       ry="0.21885514" />
    <ellipse
       style="fill:#280b0b;fill-opacity:1;stroke:#000000;stroke-width:0.00840169;stroke-dasharray:none;stroke-opacity:1"
       id="path13-18-38"
       cx="100.03579"
       cy="285.12842"
       rx="0.20210047"
       ry="0.21885514" />
    <ellipse
       style="fill:#280b0b;fill-opacity:1;stroke:#000000;stroke-width:0.00840169;stroke-dasharray:none;stroke-opacity:1"
       id="path13-3-4"
       cx="98.901131"
       cy="284.888"
       rx="0.20210047"
       ry="0.21885514" />
    <ellipse
       style="fill:#280b0b;fill-opacity:1;stroke:#000000;stroke-width:0.00840169;stroke-dasharray:none;stroke-opacity:1"
       id="path13-4-5"
       cx="99.320473"
       cy="283.98648"
       rx="0.20210047"
       ry="0.21885514" />
    <ellipse
       style="fill:#280b0b;fill-opacity:1;stroke:#000000;stroke-width:0.00840169;stroke-dasharray:none;stroke-opacity:1"
       id="path13-7-29"
       cx="100.06044"
       cy="284.46732"
       rx="0.20210047"
       ry="0.21885514" />
    <ellipse
       style="fill:#280b0b;fill-opacity:1;stroke:#000000;stroke-width:0.00840169;stroke-dasharray:none;stroke-opacity:1"
       id="path13-1-0"
       cx="98.013145"
       cy="284.7478"
       rx="0.20210047"
       ry="0.21885514" />
    <ellipse
       style="fill:#280b0b;fill-opacity:1;stroke:#000000;stroke-width:0.00840169;stroke-dasharray:none;stroke-opacity:1"
       id="path13-9-9"
       cx="99.394447"
       cy="284.96814"
       rx="0.20210047"
       ry="0.21885514" />
    <path
       style="fill:#280b0b;fill-opacity:1;stroke:#000000;stroke-width:0.00840169;stroke-dasharray:none;stroke-opacity:1"
       id="path12-8"
       d="m 98.319442,284.0744 a 0.06736683,0.09574911 0 0 1 -1.21e-4,0.006" />
    <ellipse
       style="fill:#280b0b;fill-opacity:1;stroke:#000000;stroke-width:0.00840169;stroke-dasharray:none;stroke-opacity:1"
       id="path13-0"
       cx="98.656281"
       cy="284.22491"
       rx="0.20210047"
       ry="0.21885514" />
    <path
       d="m 98.889001,288.9953 v 2.36014 l -2.387483,-1.60211 -0.314495,0.37113 2.555066,1.71443 0.146912,-0.17341 v 2.66295 h 0.417847 v -1.72362 l 0.301934,0.20165 2.077418,-2.46326 -0.41784,-0.27917 -1.961512,2.32599 v -3.39472 z"
       style="fill:#008000;stroke:#000000;stroke-width:0.134756"
       id="path18-5" />
    <path
       id="path3-9-7-0"
       style="fill:#f9f9f9;stroke:#000000;stroke-width:0.0687657;stroke-dasharray:none;stroke-opacity:1"
       d="m 303.50896,220.85378 -16.37115,0.004 -11.33194,-0.0389 c 1.49423,-11.46947 10.03166,-5.51084 8.92218,-5.57891 0,0 2.17088,-3.92238 4.9143,-3.99499 3.07452,-0.0814 6.13423,4.16901 6.13423,4.16901 0,0 6.28015,-1.99767 8.47152,-0.98514 3.0266,1.39839 -0.73914,6.42517 -0.73914,6.42517 z" />
    <path
       id="path3-9-7-0-1"
       style="fill:#f9f9f9;stroke:#000000;stroke-width:0.0687657;stroke-dasharray:none;stroke-opacity:1"
       d="m 359.23034,204.44548 -16.37114,0.004 -11.33195,-0.0389 c 1.49423,-11.46947 10.03166,-5.51084 8.92218,-5.5789 0,0 2.17088,-3.92238 4.9143,-3.995 3.07452,-0.0814 6.13423,4.16902 6.13423,4.16902 0,0 6.28015,-1.99767 8.47152,-0.98515 3.0266,1.39839 -0.73914,6.42517 -0.73914,6.42517 z" />
    <path
       id="path3-9-7-0-0"
       style="fill:#f9f9f9;stroke:#000000;stroke-width:0.0687657;stroke-dasharray:none;stroke-opacity:1"
       d="m 387.9569,173.84055 -16.37115,0.004 -11.33194,-0.0389 c 1.49423,-11.46947 10.03166,-5.51084 8.92218,-5.5789 0,0 2.17088,-3.92238 4.91429,-3.995 3.07453,-0.0814 6.13423,4.16902 6.13423,4.16902 0,0 6.28015,-1.99767 8.47153,-0.98515 3.0266,1.3984 -0.73914,6.42517 -0.73914,6.42517 z" />
    <path
       style="fill:#008000;fill-opacity:1;stroke:#000000;stroke-width:0.18;stroke-dasharray:none;stroke-opacity:1;paint-order:markers fill stroke"
       id="path20"
       d="m 394.23894,277.96125 -1.16844,-0.74889 -1.47176,0.64326 a 5.4857487,5.4857487 24.524454 0 1 -7.43334,-3.3914 l -0.89247,-2.85793 -1.54093,-0.45327 a 5.4857487,5.4857487 64.524454 0 1 -3.51431,-7.37602 l 1.15337,-2.76297 -0.88906,-1.33771 a 5.4857487,5.4857487 104.52445 0 1 2.04909,-7.90931 l 2.65953,-1.37519 0.17881,-1.59622 a 5.4857487,5.4857487 144.52445 0 1 6.6537,-4.74176 7.9758004,7.9758004 155.72329 0 0 6.85639,-3.09242 5.1918373,5.1918373 35.517778 0 1 6.29391,4.49234 l 0.72724,0.95318 a 0.51746828,0.51746828 24.524454 0 0 0.44397,0.20256 7.4696602,7.4696602 50.921567 0 1 7.01319,8.63636 7.5789686,7.5789686 89.777718 0 1 0.0438,11.28798 6.9252405,6.9252405 124.52445 0 1 -5.84577,8.49789 l -1.37646,0.17736 a 6.9252405,6.9252405 164.52445 0 1 -9.94045,2.75216 z"
       transform="matrix(0.66035044,0,0,0.62243508,96.21851,111.5704)" />
    <path
       style="fill:#008000;fill-opacity:1;stroke:#000000;stroke-width:0.18;stroke-dasharray:none;stroke-opacity:1;paint-order:markers fill stroke"
       id="path20-4"
       d="m 394.23894,277.96125 -1.16844,-0.74889 -1.47176,0.64326 a 5.4857487,5.4857487 24.524454 0 1 -7.43334,-3.3914 l -0.89247,-2.85793 -1.54093,-0.45327 a 5.4857487,5.4857487 64.524454 0 1 -3.51431,-7.37602 l 1.15337,-2.76297 -0.88906,-1.33771 a 5.4857487,5.4857487 104.52445 0 1 2.04909,-7.90931 l 2.65953,-1.37519 0.17881,-1.59622 a 5.4857487,5.4857487 144.52445 0 1 6.6537,-4.74176 7.9758004,7.9758004 155.72329 0 0 6.85639,-3.09242 5.1918373,5.1918373 35.517778 0 1 6.29391,4.49234 l 0.72724,0.95318 a 0.51746828,0.51746828 24.524454 0 0 0.44397,0.20256 7.4696602,7.4696602 50.921567 0 1 7.01319,8.63636 7.5789686,7.5789686 89.777718 0 1 0.0438,11.28798 6.9252405,6.9252405 124.52445 0 1 -5.84577,8.49789 l -1.37646,0.17736 a 6.9252405,6.9252405 164.52445 0 1 -9.94045,2.75216 z"
       transform="matrix(0.13405238,0,0,0.11566128,310.05544,254.57845)" />
    <path
       style="fill:#008000;fill-opacity:1;stroke:#000000;stroke-width:0.18;stroke-dasharray:none;stroke-opacity:1;paint-order:markers fill stroke"
       id="path20-4-8"
       d="m 394.23894,277.96125 -1.16844,-0.74889 -1.47176,0.64326 a 5.4857487,5.4857487 24.524454 0 1 -7.43334,-3.3914 l -0.89247,-2.85793 -1.54093,-0.45327 a 5.4857487,5.4857487 64.524454 0 1 -3.51431,-7.37602 l 1.15337,-2.76297 -0.88906,-1.33771 a 5.4857487,5.4857487 104.52445 0 1 2.04909,-7.90931 l 2.65953,-1.37519 0.17881,-1.59622 a 5.4857487,5.4857487 144.52445 0 1 6.6537,-4.74176 7.9758004,7.9758004 155.72329 0 0 6.85639,-3.09242 5.1918373,5.1918373 35.517778 0 1 6.29391,4.49234 l 0.72724,0.95318 a 0.51746828,0.51746828 24.524454 0 0 0.44397,0.20256 7.4696602,7.4696602 50.921567 0 1 7.01319,8.63636 7.5789686,7.5789686 89.777718 0 1 0.0438,11.28798 6.9252405,6.9252405 124.52445 0 1 -5.84577,8.49789 l -1.37646,0.17736 a 6.9252405,6.9252405 164.52445 0 1 -9.94045,2.75216 z"
       transform="matrix(0.17387316,0,0,0.16928268,281.83329,243.71956)" />
    <rect
       style="fill:#502d16;fill-opacity:1;stroke:#000000;stroke-width:0.115401;stroke-dasharray:none;stroke-opacity:1;paint-order:markers fill stroke"
       id="rect20"
       width="2.2379019"
       height="9.4923382"
       x="356.47586"
       y="284.81464" />
    <rect
       style="fill:#502d16;fill-opacity:1;stroke:#000000;stroke-width:0.115495;stroke-dasharray:none;stroke-opacity:1;paint-order:markers fill stroke"
       id="rect21"
       width="0.60743392"
       height="4.7207713"
       x="-21.479843"
       y="457.17203"
       transform="matrix(0.64281233,-0.7660237,0.80170629,0.59771818,0,0)" />
    <rect
       style="fill:#502d16;fill-opacity:1;stroke:#000000;stroke-width:0.115492;stroke-dasharray:none;stroke-opacity:1;paint-order:markers fill stroke"
       id="rect22"
       width="0.71336353"
       height="5.4799519"
       x="461.33688"
       y="28.562635"
       transform="matrix(0.82179986,0.56977627,-0.61521185,0.78836183,0,0)" />
    <ellipse
       style="fill:#280b0b;fill-opacity:1;stroke:#000000;stroke-width:0.00840169;stroke-dasharray:none;stroke-opacity:1"
       id="path13-6-06"
       cx="61.2645"
       cy="284.2048"
       rx="0.20210047"
       ry="0.21885514" />
    <ellipse
       style="fill:#280b0b;fill-opacity:1;stroke:#000000;stroke-width:0.00571025;stroke-dasharray:none;stroke-opacity:1"
       id="path13-18-34"
       cx="61.368259"
       cy="288.02756"
       rx="0.13345525"
       ry="0.1530963" />
    <ellipse
       style="fill:#280b0b;fill-opacity:1;stroke:#000000;stroke-width:0.00840169;stroke-dasharray:none;stroke-opacity:1"
       id="path13-3-6"
       cx="60.302505"
       cy="285.06619"
       rx="0.20210047"
       ry="0.21885514" />
    <ellipse
       style="fill:#280b0b;fill-opacity:1;stroke:#000000;stroke-width:0.00840169;stroke-dasharray:none;stroke-opacity:1"
       id="path13-4-9"
       cx="60.721855"
       cy="284.16467"
       rx="0.20210047"
       ry="0.21885514" />
    <ellipse
       style="fill:#280b0b;fill-opacity:1;stroke:#000000;stroke-width:0.00571025;stroke-dasharray:none;stroke-opacity:1"
       id="path13-7-7"
       cx="61.384556"
       cy="287.56509"
       rx="0.13345525"
       ry="0.1530963" />
    <ellipse
       style="fill:#280b0b;fill-opacity:1;stroke:#000000;stroke-width:0.00840169;stroke-dasharray:none;stroke-opacity:1"
       id="path13-9-4"
       cx="60.79583"
       cy="285.14636"
       rx="0.20210047"
       ry="0.21885514" />
    <path
       style="fill:#008000;fill-opacity:1;stroke:#000000;stroke-width:0.18;stroke-dasharray:none;stroke-opacity:1;paint-order:markers fill stroke"
       id="path20-9"
       d="m 394.23894,277.96125 -1.16844,-0.74889 -1.47176,0.64326 a 5.4857487,5.4857487 24.524454 0 1 -7.43334,-3.3914 l -0.89247,-2.85793 -1.54093,-0.45327 a 5.4857487,5.4857487 64.524454 0 1 -3.51431,-7.37602 l 1.15337,-2.76297 -0.88906,-1.33771 a 5.4857487,5.4857487 104.52445 0 1 2.04909,-7.90931 l 2.65953,-1.37519 0.17881,-1.59622 a 5.4857487,5.4857487 144.52445 0 1 6.6537,-4.74176 7.9758004,7.9758004 155.72329 0 0 6.85639,-3.09242 5.1918373,5.1918373 35.517778 0 1 6.29391,4.49234 l 0.72724,0.95318 a 0.51746828,0.51746828 24.524454 0 0 0.44397,0.20256 7.4696602,7.4696602 50.921567 0 1 7.01319,8.63636 7.5789686,7.5789686 89.777718 0 1 0.0438,11.28798 6.9252405,6.9252405 124.52445 0 1 -5.84577,8.49789 l -1.37646,0.17736 a 6.9252405,6.9252405 164.52445 0 1 -9.94045,2.75216 z"
       transform="matrix(0.66035044,0,0,0.62243508,-183.15061,111.56701)" />
    <path
       style="fill:#008000;fill-opacity:1;stroke:#000000;stroke-width:0.18;stroke-dasharray:none;stroke-opacity:1;paint-order:markers fill stroke"
       id="path20-4-4"
       d="m 394.23894,277.96125 -1.16844,-0.74889 -1.47176,0.64326 a 5.4857487,5.4857487 24.524454 0 1 -7.43334,-3.3914 l -0.89247,-2.85793 -1.54093,-0.45327 a 5.4857487,5.4857487 64.524454 0 1 -3.51431,-7.37602 l 1.15337,-2.76297 -0.88906,-1.33771 a 5.4857487,5.4857487 104.52445 0 1 2.04909,-7.90931 l 2.65953,-1.37519 0.17881,-1.59622 a 5.4857487,5.4857487 144.52445 0 1 6.6537,-4.74176 7.9758004,7.9758004 155.72329 0 0 6.85639,-3.09242 5.1918373,5.1918373 35.517778 0 1 6.29391,4.49234 l 0.72724,0.95318 a 0.51746828,0.51746828 24.524454 0 0 0.44397,0.20256 7.4696602,7.4696602 50.921567 0 1 7.01319,8.63636 7.5789686,7.5789686 89.777718 0 1 0.0438,11.28798 6.9252405,6.9252405 124.52445 0 1 -5.84577,8.49789 l -1.37646,0.17736 a 6.9252405,6.9252405 164.52445 0 1 -9.94045,2.75216 z"
       transform="matrix(0.13405238,0,0,0.11566128,30.686335,254.57507)" />
    <path
       style="fill:#008000;fill-opacity:1;stroke:#000000;stroke-width:0.18;stroke-dasharray:none;stroke-opacity:1;paint-order:markers fill stroke"
       id="path20-4-8-1"
       d="m 394.23894,277.96125 -1.16844,-0.74889 -1.47176,0.64326 a 5.4857487,5.4857487 24.524454 0 1 -7.43334,-3.3914 l -0.89247,-2.85793 -1.54093,-0.45327 a 5.4857487,5.4857487 64.524454 0 1 -3.51431,-7.37602 l 1.15337,-2.76297 -0.88906,-1.33771 a 5.4857487,5.4857487 104.52445 0 1 2.04909,-7.90931 l 2.65953,-1.37519 0.17881,-1.59622 a 5.4857487,5.4857487 144.52445 0 1 6.6537,-4.74176 7.9758004,7.9758004 155.72329 0 0 6.85639,-3.09242 5.1918373,5.1918373 35.517778 0 1 6.29391,4.49234 l 0.72724,0.95318 a 0.51746828,0.51746828 24.524454 0 0 0.44397,0.20256 7.4696602,7.4696602 50.921567 0 1 7.01319,8.63636 7.5789686,7.5789686 89.777718 0 1 0.0438,11.28798 6.9252405,6.9252405 124.52445 0 1 -5.84577,8.49789 l -1.37646,0.17736 a 6.9252405,6.9252405 164.52445 0 1 -9.94045,2.75216 z"
       transform="matrix(0.17387316,0,0,0.16928268,2.4641903,243.71619)" />
    <rect
       style="fill:#502d16;fill-opacity:1;stroke:#000000;stroke-width:0.115401;stroke-dasharray:none;stroke-opacity:1;paint-order:markers fill stroke"
       id="rect20-9"
       width="2.2379019"
       height="9.4923382"
       x="77.106796"
       y="284.81122" />
    <rect
       style="fill:#502d16;fill-opacity:1;stroke:#000000;stroke-width:0.115495;stroke-dasharray:none;stroke-opacity:1;paint-order:markers fill stroke"
       id="rect21-6"
       width="0.60743392"
       height="4.7207713"
       x="-188.73758"
       y="242.81238"
       transform="matrix(0.64281233,-0.7660237,0.80170629,0.59771818,0,0)" />
    <rect
       style="fill:#502d16;fill-opacity:1;stroke:#000000;stroke-width:0.115492;stroke-dasharray:none;stroke-opacity:1;paint-order:markers fill stroke"
       id="rect22-7"
       width="0.71336353"
       height="5.4799519"
       x="240.74004"
       y="187.99142"
       transform="matrix(0.82179986,0.56977627,-0.61521185,0.78836183,0,0)" />
  </g>
  <rect
     style="fill:#9ddcff;fill-opacity:1;stroke:#000000;stroke-width:0;stroke-dasharray:none;paint-order:markers fill stroke"
     id="rect12-3"
     width="21.669703"
     height="8.2854738"
     x="-6.4590317e-06"
     y="-1.3093938e-06"
     ry="0" />
  <text
     xml:space="preserve"
     style="font-size:4.66994px;font-family:Herculanum;-inkscape-font-specification:Herculanum;text-align:end;word-spacing:0px;text-anchor:end;fill:#000000;fill-opacity:1;stroke:#000000;stroke-width:0.264754;stroke-dasharray:none;paint-order:markers fill stroke"
     x="19.709846"
     y="5.1630974"
     id="text12"
     transform="scale(0.92052254,1.0863395)"><tspan
       id="tspan12"
       style="fill:#000000;stroke-width:0.264754;stroke-dasharray:none"
       x="19.709846"
       y="5.1630974">NAME</tspan></text>
</svg>
