<?xml version="1.0" encoding="UTF-8" standalone="no"?>
<!-- Created with Inkscape (http://www.inkscape.org/) -->

<svg
   width="53.583958mm"
   height="57.244755mm"
   viewBox="0 0 76.548404 81.778107"
   version="1.1"
   id="svg1"
   xmlns="http://www.w3.org/2000/svg"
   xmlns:svg="http://www.w3.org/2000/svg">
  <defs
     id="defs1" />
  <g
     id="layer1"
     transform="translate(-43.953837,-22.929488)">
    <ellipse
       style="fill:#ffff00;stroke:#eaa709;stroke-width:0.367509;stroke-dasharray:none;stroke-opacity:1"
       id="path1"
       cx="72.437134"
       cy="-59.712147"
       rx="13.4815"
       ry="13.940396"
       transform="matrix(0.27303108,0.96200521,-0.96884996,0.24764844,0,0)" />
    <path
       id="path3-2"
       style="fill:#666666;stroke:#000000;stroke-width:0.285714;stroke-dasharray:none;stroke-opacity:1"
       d="m 117.08068,76.630948 -8.8632,0.005 -6.13493,-0.0459 c 0.80893,-13.53256 6.92747,-3.09841 6.32679,-3.17873 0,0 -1.10339,-7.43466 1.16411,-8.11729 1.7279,-0.52019 3.32097,4.91893 3.32097,4.91893 0,0 3.40003,-2.357 4.5864,-1.16236 1.63854,1.64994 -0.40014,7.5809 -0.40014,7.5809 z" />
    <path
       id="path3-9-6"
       style="fill:#cccccc;stroke:#000000;stroke-width:0.465714;stroke-dasharray:none;stroke-opacity:1;paint-order:stroke markers fill"
       d="m 59.199031,103.73061 -8.863164,0.004 -6.134946,-0.046 c 0.808951,-13.532574 6.92748,-3.09841 6.326809,-3.17872 0,0 -1.103389,-7.434681 1.164072,-8.117302 1.727913,-0.520201 3.320985,4.918928 3.320985,4.918928 0,0 3.400008,-2.357005 4.586387,-1.162367 1.638547,1.649939 -0.400143,7.580921 -0.400143,7.580921 z" />
    <path
       id="path3-9-4"
       style="fill:#b3b3b3;stroke:#000000;stroke-width:0.18;stroke-dasharray:none;stroke-opacity:1"
       d="m 112.50404,104.6136 -8.86316,0.004 -6.134938,-0.046 c 0.80895,-13.532581 6.927468,-3.09841 6.326798,-3.17873 0,0 -1.10339,-7.434675 1.16407,-8.1173 1.72792,-0.520199 3.32099,4.918927 3.32099,4.918927 0,0 3.40001,-2.357 4.58639,-1.162365 1.63854,1.649945 -0.40015,7.580928 -0.40015,7.580928 z" />
    <path
       id="path3-9-0"
       style="fill:#666666;stroke:#000000;stroke-width:0.245714;stroke-dasharray:none;stroke-opacity:1"
       d="m 100.09046,104.44047 -27.055916,0.0117 -18.727671,-0.11971 c 2.469421,-35.217534 21.146975,-8.063383 19.313352,-8.27239 0,0 -3.368223,-19.348203 3.553481,-21.124679 5.274666,-1.35378 10.137708,12.801158 10.137708,12.801158 0,0 10.378958,-6.133936 14.000516,-3.024982 5.00187,4.293848 -1.22147,19.728803 -1.22147,19.728803 z" />
    <path
       style="fill:#ff9955;fill-opacity:1;stroke:none;stroke-width:0.298786;stroke-dasharray:none;stroke-opacity:1;paint-order:markers stroke fill"
       id="path22"
       d="m 78.221251,64.457207 a 6.4229641,6.5182934 0 0 1 -3.236143,5.659382 6.4229641,6.5182934 0 0 1 -6.447435,-0.04346 6.4229641,6.5182934 0 0 1 -3.161784,-5.702506 l 6.422397,0.08658 z"
       transform="matrix(0.9936647,-0.11238534,0.12460274,0.99220671,0,0)" />
    <path
       style="fill:#ffff00;fill-opacity:1;stroke:#f9a909;stroke-width:1.34776;stroke-dasharray:none;stroke-opacity:1;paint-order:markers stroke fill"
       id="rect24"
       width="32.719284"
       height="3.0202434"
       x="27.937239"
       y="33.22266"
       rx="0"
       ry="1.5101217"
       d="m 29.44736,33.22266 h 29.699041 c 0.836607,0 1.510122,0.673514 1.510122,1.510122 0,0.836607 -0.673515,1.510121 -1.510122,1.510121 H 29.44736 c -0.836607,0 -1.510121,-0.673514 -1.510121,-1.510121 0,-0.836608 0.673514,-1.510122 1.510121,-1.510122 z"
       transform="matrix(0.19872196,0.30727446,-0.42524654,0.35667399,70.76465,10.368414)" />
    <path
       style="fill:#ffff00;fill-opacity:1;stroke:#f5a70b;stroke-width:1.09609;stroke-dasharray:none;stroke-opacity:1;paint-order:markers stroke fill"
       id="rect24-6"
       width="32.719284"
       height="3.0202434"
       x="27.937239"
       y="33.22266"
       rx="0"
       ry="1.5101217"
       d="m 29.44736,33.22266 h 29.699041 c 0.836607,0 1.510122,0.673514 1.510122,1.510122 0,0.836607 -0.673515,1.510121 -1.510122,1.510121 H 29.44736 c -0.836607,0 -1.510121,-0.673514 -1.510121,-1.510121 0,-0.836608 0.673514,-1.510122 1.510121,-1.510122 z"
       transform="matrix(0.24590438,0.06538867,0.08354924,0.67324581,42.403263,24.368935)" />
    <path
       style="fill:#ffff00;fill-opacity:1;stroke:#e69a09;stroke-width:1.01248;stroke-dasharray:none;stroke-opacity:1;paint-order:markers stroke fill"
       id="rect24-0"
       width="32.719284"
       height="3.0202434"
       x="27.937239"
       y="33.22266"
       rx="0"
       ry="1.5101217"
       d="m 29.44736,33.22266 h 29.699041 c 0.836607,0 1.510122,0.673514 1.510122,1.510122 0,0.836607 -0.673515,1.510121 -1.510122,1.510121 H 29.44736 c -0.836607,0 -1.510121,-0.673514 -1.510121,-1.510121 0,-0.836608 0.673514,-1.510122 1.510121,-1.510122 z"
       transform="matrix(-0.30382203,0.2025855,-0.43346569,-0.38413554,127.30101,48.989055)" />
    <path
       style="fill:#ffff00;fill-opacity:1;stroke:#f6a708;stroke-width:1.34121;stroke-dasharray:none;stroke-opacity:1;paint-order:markers stroke fill"
       id="rect24-1"
       width="32.719284"
       height="3.0202434"
       x="27.937239"
       y="33.22266"
       rx="0"
       ry="1.5101217"
       d="m 29.44736,33.22266 h 29.699041 c 0.836607,0 1.510122,0.673514 1.510122,1.510122 0,0.836607 -0.673515,1.510121 -1.510122,1.510121 H 29.44736 c -0.836607,0 -1.510121,-0.673514 -1.510121,-1.510121 0,-0.836608 0.673514,-1.510122 1.510121,-1.510122 z"
       transform="matrix(0.21940588,0.28760385,-0.3795329,0.43466281,93.524849,46.189496)" />
    <path
       style="fill:#ffff00;fill-opacity:1;stroke:#f4a608;stroke-width:1.01248;stroke-dasharray:none;stroke-opacity:1;paint-order:markers stroke fill"
       id="rect24-8"
       width="32.719284"
       height="3.0202434"
       x="27.937239"
       y="33.22266"
       rx="0"
       ry="1.5101217"
       d="m 29.44736,33.22266 h 29.699041 c 0.836607,0 1.510122,0.673514 1.510122,1.510122 0,0.836607 -0.673515,1.510121 -1.510122,1.510121 H 29.44736 c -0.836607,0 -1.510121,-0.673514 -1.510121,-1.510121 0,-0.836608 0.673514,-1.510122 1.510121,-1.510122 z"
       transform="matrix(-0.32839096,0.16243483,-0.37828466,-0.43568828,85.669641,73.134805)" />
    <path
       style="fill:#ffff00;fill-opacity:1;stroke:#f6a80d;stroke-width:1.09609;stroke-dasharray:none;stroke-opacity:1;paint-order:markers stroke fill"
       id="rect24-6-7"
       width="32.719284"
       height="3.0202434"
       x="27.937239"
       y="33.22266"
       rx="0"
       ry="1.5101217"
       d="m 29.44736,33.22266 h 29.699041 c 0.836607,0 1.510122,0.673514 1.510122,1.510122 0,0.836607 -0.673515,1.510121 -1.510122,1.510121 H 29.44736 c -0.836607,0 -1.510121,-0.673514 -1.510121,-1.510121 0,-0.836608 0.673514,-1.510122 1.510121,-1.510122 z"
       transform="matrix(-0.08954983,0.25417965,-0.63320319,0.00956383,111.43633,23.603625)" />
    <path
       style="fill:#ffff00;fill-opacity:1;stroke:#f6a708;stroke-width:1.09609;stroke-dasharray:none;stroke-opacity:1;paint-order:markers stroke fill"
       id="rect24-6-72"
       width="32.719284"
       height="3.0202434"
       x="27.937239"
       y="33.22266"
       rx="0"
       ry="1.5101217"
       d="m 29.44736,33.22266 h 29.699041 c 0.836607,0 1.510122,0.673514 1.510122,1.510122 0,0.836607 -0.673515,1.510121 -1.510122,1.510121 H 29.44736 c -0.836607,0 -1.510121,-0.673514 -1.510121,-1.510121 0,-0.836608 0.673514,-1.510122 1.510121,-1.510122 z"
       transform="matrix(-0.11044897,0.24453911,-0.63145017,-0.05139626,95.969317,64.03162)" />
    <path
       style="fill:#ffff00;fill-opacity:1;stroke:#f5a607;stroke-width:1.46764;stroke-dasharray:none;stroke-opacity:1;paint-order:markers stroke fill"
       id="rect24-6-0"
       width="32.719284"
       height="3.0202434"
       x="27.937239"
       y="33.22266"
       rx="0"
       ry="1.5101217"
       d="m 29.44736,33.22266 h 29.699041 c 0.836607,0 1.510122,0.673514 1.510122,1.510122 0,0.836607 -0.673515,1.510121 -1.510122,1.510121 H 29.44736 c -0.836607,0 -1.510121,-0.673514 -1.510121,-1.510121 0,-0.836608 0.673514,-1.510122 1.510121,-1.510122 z"
       transform="matrix(0.24590438,0.06538867,0.08354924,0.67324581,83.835918,33.76336)" />
    <path
       style="fill:#ffff00;fill-opacity:1;stroke:#f6a708;stroke-width:0.285714;stroke-dasharray:none;stroke-opacity:1;paint-order:markers stroke fill"
       id="path24"
       d="m 120.35938,36.000351 a 0.13432968,6.7164836 0 0 1 2e-5,-0.08921" />
    <path
       style="fill:#ffff00;fill-opacity:1;stroke:#f6a708;stroke-width:0.285714;stroke-dasharray:none;stroke-opacity:1;paint-order:markers stroke fill"
       id="path25"
       d="m 108.00106,22.970373 a 9.4030771,2.5522637 0 0 1 8.3e-4,-0.0339" />
    <path
       style="fill:#ffb380;fill-opacity:1;stroke:#f6a708;stroke-width:0.075086;stroke-dasharray:none;stroke-opacity:1;paint-order:markers stroke fill"
       id="path29"
       d="m -79.558139,-31.299487 a 3.0124021,1.926203 0 0 1 1.772801,2.284505 3.0124021,1.926203 0 0 1 -3.326421,1.407069 3.0124021,1.926203 0 0 1 -2.594547,-1.936909 l 3.012054,0.0293 z"
       transform="matrix(-0.96454949,-0.26390203,0.15429798,-0.98802436,0,0)" />
    <path
       style="fill:#ffb380;fill-opacity:1;stroke:#f6a708;stroke-width:0.0777365;stroke-dasharray:none;stroke-opacity:1;paint-order:markers stroke fill"
       id="path29-7"
       d="m -88.015777,-21.210578 a 2.7650068,2.2493131 0 0 1 1.627209,2.667719 2.7650068,2.2493131 0 0 1 -3.053237,1.643097 2.7650068,2.2493131 0 0 1 -2.381468,-2.261815 l 2.764687,0.03421 z"
       transform="matrix(-0.94135281,-0.3374239,0.11836507,-0.99297015,0,0)" />
  </g>
</svg>
